# xmcd
#
# Track frame offsets:
#	150
#	15823
#	28371
#	42561
#	57465
#	71702
#	88067
#	104419
#	121678
#	140673
#	153320
#	180905
#	197674
#	213699
#	230322
#	248035
#	265754
#
# Disc length: 3762 seconds
#
# Revision: 0
# Processed by: cddbd v1.4PL0 Copyright (c) Steve Scherf et al.
# Submitted via: dBpowerAMP V4.0
#
DISCID=ec0eb011
DTITLE=Curtis Mayfield - The Funk.../Greatest Hits
DYEAR=2001
DGENRE=R&B
TTITLE0=If There's a Hell Below We're Gonna Go
TTITLE1=Move On Up
TTITLE2=Keep On Keeping On
TTITLE3=Freddie's Dead
TTITLE4=Superfly
TTITLE5=Future Shock
TTITLE6=Can't Say Nothin'
TTITLE7=Kung Fu
TTITLE8=Mother's Son
TTITLE9=So In Love
TTITLE10=Billy Jack
TTITLE11=Hard Times
TTITLE12=Do Do Wap Is Stong In Here
TTITLE13=Do It All Night
TTITLE14=Between You Baby And Me
TTITLE15=She Don't Let Nobody
TTITLE16=Do Be Down
EXTD=oldskoolmaster2000@yahoo.es
EXTT0=
EXTT1=
EXTT2=
EXTT3=
EXTT4=
EXTT5=
EXTT6=
EXTT7=
EXTT8=
EXTT9=
EXTT10=
EXTT11=
EXTT12=
EXTT13=
EXTT14=
EXTT15=
EXTT16=
PLAYORDER=
